<?xml version="1.0" encoding="iso-8859-1"?>
<!-- Generator: Adobe Illustrator 19.0.0, SVG Export Plug-In . SVG Version: 6.00 Build 0)  -->
<svg version="1.1" id="Layer_1" xmlns="http://www.w3.org/2000/svg" xmlns:xlink="http://www.w3.org/1999/xlink" x="0px" y="0px"
	 viewBox="0 0 512.026 512.026" style="enable-background:new 0 0 512.026 512.026;" xml:space="preserve">
<g>
	<circle style="fill:#F9DEA0;" cx="256" cy="256.013" r="256"/>
	<path style="fill:#515A71;" d="M0,72.889v369.624c0,8.604,7.04,15.644,15.644,15.644h397.436
		c129.979-101.148,132.352-296.808,4.239-400.911H15.644C7.04,57.245,0,64.285,0,72.889z"/>
	<path style="fill:#41485D;" d="M67.768,442.513V72.889c0-8.604,7.04-15.644,15.644-15.644H15.644C7.04,57.245,0,64.285,0,72.889
		v369.624c0,8.604,7.04,15.644,15.644,15.644h67.768C74.808,458.157,67.768,451.117,67.768,442.513z"/>
	<path style="fill:#41485D;" d="M463.822,106.518H141.216c-3.137,0-5.68,2.543-5.68,5.68v291.005c0,3.137,2.543,5.68,5.68,5.68
		h320.144C527.963,319.557,529.023,196.999,463.822,106.518z"/>
	<path style="fill:#343B4C;" d="M205.043,403.204V112.198c0-3.137,2.543-5.68,5.68-5.68h-69.507c-3.137,0-5.68,2.543-5.68,5.68
		v291.005c0,3.137,2.543,5.68,5.68,5.68h69.507C207.586,408.884,205.043,406.341,205.043,403.204z"/>
	<path style="fill:#F7F7F7;" d="M483.501,373.491c0-36.126,0-222.606,0-234.957c-0.482-0.931-0.974-1.856-1.467-2.781
		c-0.337-0.161-0.709-0.26-1.108-0.26H167.812c-1.422,0-2.575,1.153-2.575,2.575c0,53.236,0,218.25,0,239.264
		c0,1.422,1.153,2.575,2.575,2.575h312.245C481.232,377.786,482.384,375.65,483.501,373.491z"/>
	<path style="fill:#DFE1E5;" d="M167.812,135.494c-1.422,0-2.575,1.153-2.575,2.575c0,53.236,0,218.25,0,239.264
		c0,1.422,1.153,2.575,2.575,2.575h37.231V135.494H167.812z"/>
	<path style="fill:#57B5E9;" d="M165.237,174.324v31.101h39.806v-31.101c0-2.171-1.76-3.931-3.931-3.931h-31.944
		C166.997,170.394,165.237,172.153,165.237,174.324z"/>
	<circle style="fill:#41485D;" cx="67.629" cy="257.701" r="33.372"/>
	<path style="fill:#343B4C;" d="M60.667,261.721c-6.973-12.078-5.533-26.699,2.493-37.093c-4.185,0.564-8.333,1.93-12.216,4.172
		c-15.962,9.215-21.43,29.625-12.215,45.587s29.625,21.43,45.587,12.215c3.884-2.242,7.141-5.151,9.722-8.493
		C81.022,279.862,67.64,273.799,60.667,261.721z"/>
	<path style="fill:#7D899E;" d="M96.246,106.519H39.013c-2.626,0-4.756,2.129-4.756,4.755v57.21h66.744v-57.21
		C101.001,108.648,98.872,106.519,96.246,106.519z"/>
	<path style="fill:#616B84;" d="M39.013,106.519c-2.626,0-4.756,2.129-4.756,4.755v57.21h33.51v-61.965H39.013z"/>
	<path style="fill:#616B84;" d="M96.246,106.519H39.013c-2.626,0-4.756,2.129-4.756,4.755v26.227h66.744v-26.227
		C101.001,108.648,98.872,106.519,96.246,106.519z"/>
	<path style="fill:#515A71;" d="M39.013,106.519c-2.626,0-4.756,2.129-4.756,4.755v26.227h33.51v-30.983H39.013z"/>
	<path style="fill:#616B84;" d="M96.246,199.466H39.013c-2.626,0-4.756-2.129-4.756-4.755v-26.227h66.744v26.227
		C101.001,197.337,98.872,199.466,96.246,199.466z"/>
	<path style="fill:#515A71;" d="M34.257,168.484v26.227c0,2.626,2.129,4.755,4.756,4.755h28.755v-30.983H34.257z"/>
	<g>
		<path style="fill:#616B84;" d="M67.626,265.733c-2.111,0-4.179-0.857-5.679-2.347c-0.375-0.375-0.707-0.782-0.997-1.221
			s-0.536-0.911-0.739-1.393c-0.204-0.482-0.354-0.986-0.461-1.501c-0.107-0.514-0.161-1.05-0.161-1.575
			c0-0.525,0.053-1.051,0.161-1.564c0.107-0.515,0.257-1.018,0.461-1.511c0.204-0.482,0.45-0.943,0.739-1.382
			s0.622-0.847,0.997-1.221c1.489-1.501,3.568-2.358,5.679-2.358c2.122,0,4.19,0.857,5.69,2.358
			c0.364,0.375,0.707,0.782,0.997,1.221c0.289,0.439,0.536,0.9,0.739,1.382c0.204,0.493,0.354,0.996,0.46,1.511
			c0.097,0.514,0.15,1.039,0.15,1.564c0,0.525-0.053,1.061-0.15,1.575c-0.107,0.515-0.257,1.018-0.46,1.501
			c-0.204,0.481-0.45,0.953-0.739,1.393c-0.289,0.439-0.633,0.847-0.997,1.221C71.815,264.876,69.747,265.733,67.626,265.733z"/>
	</g>
	<path style="fill:#F3A225;" d="M335.539,217.372h-40.317l0,0l17.182-34.365c1.226-2.452,4.726-2.452,5.952,0L335.539,217.372z"/>
	<polygon style="fill:#FEC63B;" points="335.539,217.372 315.381,217.372 295.222,217.372 279.438,343.702 315.381,343.702 
		351.323,343.702 	"/>
	<polygon style="fill:#F9B430;" points="315.381,217.372 295.222,217.372 279.438,343.702 315.381,343.702 	"/>
	<g>
		<path style="fill:#57B5E9;" d="M400.586,200.568h-15.332c-4.438,0-8.036-3.597-8.036-8.036c0-3.742-3.044-6.786-6.786-6.786
			c-3.742,0-6.786,3.044-6.786,6.786c0,4.439-3.598,8.036-8.036,8.036s-8.036-3.597-8.036-8.036
			c0-12.604,10.255-22.858,22.859-22.858c9.778,0,18.141,6.171,21.401,14.822h8.754c4.438,0,8.036,3.597,8.036,8.036
			S405.024,200.568,400.586,200.568z"/>
	</g>
	<path style="fill:#D2D3D6;" d="M165.237,205.426c0,38.667,0,99.974,0,137.563c0,2.171,1.76,3.931,3.931,3.931h31.944
		c2.171,0,3.931-1.76,3.931-3.931c0-37.589,0-98.895,0-137.563H165.237z"/>
	<g>
		<path style="fill:#40C488;" d="M375.194,351.739H250.186c-4.438,0-8.036-3.597-8.036-8.036c0-4.439,3.598-8.036,8.036-8.036
			h125.008c4.438,0,8.036,3.597,8.036,8.036C383.23,348.141,379.632,351.739,375.194,351.739z"/>
	</g>
	<path style="fill:#515A71;" d="M399.933,330.415l-23.711-13.69c-0.231-0.133-0.441-0.293-0.653-0.448l-7.945,13.761
		c-3.995,6.919-1.624,15.765,5.295,19.76c6.918,3.994,15.765,1.624,19.76-5.295l7.944-13.759
		C400.39,330.641,400.156,330.544,399.933,330.415z"/>
	<path style="fill:#7D899E;" d="M379.617,275.851l53.996,31.175c5.076-5.774,9.711-12.103,14.145-19.785
		c4.856-8.409,12.659-21.92,32.279-55.899l-58.092-33.539c-20.646,35.763-28.58,49.509-32.272,55.903
		C385.23,261.402,382.072,268.57,379.617,275.851z"/>
	<path style="fill:#616B84;" d="M418.995,271.181c3.747-6.49,11.771-20.391,32.509-56.314l-29.558-17.066
		c-20.646,35.763-28.581,49.509-32.272,55.903c-4.444,7.697-7.602,14.864-10.057,22.145l29.436,16.995
		C411.516,285.736,414.651,278.706,418.995,271.181z"/>
	<g>
		<path style="fill:#515A71;" d="M418.311,271.178c-3.844-2.219-5.161-7.134-2.941-10.978l15.358-26.601
			c2.219-3.844,7.134-5.161,10.978-2.941c3.844,2.219,5.161,7.134,2.941,10.978l-15.358,26.601
			C427.069,272.08,422.155,273.397,418.311,271.178z"/>
	</g>
	<path style="fill:#616B84;" d="M380.328,273.786c-4.084,11.432-6.274,22.999-8.726,37.224c-0.52,3.017,0.898,6.04,3.548,7.57
		l23.711,13.69c2.65,1.53,5.975,1.247,8.327-0.71c11.022-9.17,19.966-16.882,27.855-26.184L380.328,273.786z"/>
	<path style="fill:#515A71;" d="M409.82,290.814l-29.492-17.027c-4.084,11.432-6.274,22.999-8.726,37.224
		c-0.52,3.017,0.898,6.04,3.548,7.57l23.711,13.69c0.39,0.225,0.798,0.399,1.212,0.546
		C402.829,316.903,405.367,303.733,409.82,290.814z"/>
	<path style="fill:#7D899E;" d="M475.47,124.168l-35.363,55.662l46.414,26.797l13.967-26.748
		C494.361,160.181,485.91,141.508,475.47,124.168z"/>
	<path style="fill:#616B84;" d="M489.99,152.05c-4.283-9.619-9.131-18.931-14.519-27.882l-35.363,55.662l23.583,13.615
		L489.99,152.05z"/>
	<g>
		<path style="fill:#616B84;" d="M495.663,226.134c-3.994,6.919-12.841,9.289-19.76,5.295l-51.965-30.002
			c-6.919-3.995-9.289-12.841-5.295-19.76c3.994-6.919,12.841-9.289,19.76-5.295l51.965,30.002
			C497.287,210.369,499.657,219.215,495.663,226.134z"/>
	</g>
	<path style="fill:#515A71;" d="M451.588,200.518c2.927-5.069,7.953-8.153,13.344-8.829l-26.529-15.317
		c-6.919-3.995-15.765-1.624-19.76,5.295s-1.624,15.765,5.295,19.76l26.869,15.513C448.492,211.838,448.573,205.739,451.588,200.518
		z"/>
	<path style="fill:#7D899E;" d="M96.246,315.936H39.013c-2.626,0-4.756,2.129-4.756,4.755v57.21h66.744v-57.21
		C101.001,318.066,98.872,315.936,96.246,315.936z"/>
	<path style="fill:#616B84;" d="M39.013,315.936c-2.626,0-4.756,2.129-4.756,4.755v57.21h33.51v-61.965H39.013z"/>
	<path style="fill:#616B84;" d="M96.246,315.936H39.013c-2.626,0-4.756,2.129-4.756,4.755v26.227h66.744v-26.227
		C101.001,318.066,98.872,315.936,96.246,315.936z"/>
	<path style="fill:#515A71;" d="M39.013,315.936c-2.626,0-4.756,2.129-4.756,4.755v26.227h33.51v-30.983H39.013z"/>
	<path style="fill:#616B84;" d="M96.246,408.884H39.013c-2.626,0-4.756-2.129-4.756-4.755v-26.227h66.744v26.227
		C101.001,406.755,98.872,408.884,96.246,408.884z"/>
	<path style="fill:#515A71;" d="M34.257,377.901v26.227c0,2.626,2.129,4.755,4.756,4.755h28.755v-30.983H34.257z"/>
</g>
<g>
</g>
<g>
</g>
<g>
</g>
<g>
</g>
<g>
</g>
<g>
</g>
<g>
</g>
<g>
</g>
<g>
</g>
<g>
</g>
<g>
</g>
<g>
</g>
<g>
</g>
<g>
</g>
<g>
</g>
</svg>
