<?xml version="1.0" encoding="iso-8859-1"?>
<!-- Generator: Adobe Illustrator 19.0.0, SVG Export Plug-In . SVG Version: 6.00 Build 0)  -->
<svg version="1.1" id="Layer_1" xmlns="http://www.w3.org/2000/svg" xmlns:xlink="http://www.w3.org/1999/xlink" x="0px" y="0px"
	 viewBox="0 0 512 512" style="enable-background:new 0 0 512 512;" xml:space="preserve">
<g>
	<circle style="fill:#41485D;" cx="256" cy="267.396" r="244.604"/>
	<path style="fill:#DFE1E5;" d="M310.521,0L310.521,0c16.501,0,30.002,13.501,30.002,30.003v4.827h-60.004v-4.827
		C280.519,13.501,294.02,0,310.521,0z"/>
	<path style="fill:#D2D3D6;" d="M325.271,3.911C320.908,1.428,315.875,0,310.521,0c-16.501,0-30.002,13.501-30.002,30.003v4.827
		h29.5v-4.827C310.019,18.854,316.185,9.083,325.271,3.911z"/>
	<path style="fill:#6BCAF9;" d="M367.842,162.788h39.424V45.583c0-7.346-5.955-13.302-13.302-13.302h-26.122V162.788z"/>
	<g>
		<path style="fill:#6BCAF9;" d="M397.709,293.295c-5.278,0-9.557-4.278-9.557-9.557V153.231c0-5.279,4.279-9.557,9.557-9.557
			c5.278,0,9.557,4.278,9.557,9.557v130.507C407.265,289.017,402.987,293.295,397.709,293.295z"/>
	</g>
	<path style="fill:#F7F7F7;" d="M266.765,511.751c30.635-1.327,59.806-8.288,86.508-19.875V289.472h-86.508V511.751z"/>
	<path style="fill:#DFE1E5;" d="M310.02,289.472h-43.255v222.279c14.799-0.641,29.252-2.609,43.255-5.766V289.472z"/>
	<path style="fill:#F55479;" d="M195.016,141.708v-33.793c0-10.319-6.916-18.685-15.448-18.685l0,0
		c-8.532,0-15.448,8.366-15.448,18.685v33.793H195.016z"/>
	<path style="fill:#ED335F;" d="M179.568,123.375c-8.082,0-14.703-7.51-15.381-17.073c-0.038,0.533-0.067,1.068-0.067,1.613v33.793
		h30.896v-33.793c0-0.544-0.03-1.08-0.067-1.613C194.272,115.865,187.65,123.375,179.568,123.375z"/>
	<path style="fill:#ED335F;" d="M209.366,210.521c-4.844-14.253-7.336-29.516-7.336-44.926v-20.364c0-4.761-3.191-8.62-7.127-8.62
		h-12.507h-5.656h-12.507c-3.936,0-7.127,3.859-7.127,8.62v20.364c0,15.411-2.492,30.673-7.336,44.926l-9.582,28.192h16.918h19.634
		h5.656h19.634h16.918L209.366,210.521z"/>
	<path style="fill:#DB2659;" d="M181.584,165.594v-20.364c0-4.761,1.928-8.62,4.306-8.62h-3.494h-5.656h-12.507
		c-3.936,0-7.127,3.859-7.127,8.62v20.364c0,15.411-2.492,30.673-7.336,44.927l-9.582,28.192h16.918h14.256l5.789-28.192
		C180.078,196.268,181.584,181.005,181.584,165.594z"/>
	<path style="fill:#DFE1E5;" d="M224.314,274.6v-32.017c0-2.842-1.904-5.144-4.254-5.144h-78c-2.349,0-4.254,2.303-4.254,5.144
		V274.6H224.314z"/>
	<path style="fill:#D2D3D6;" d="M181.875,237.439H142.06c-2.349,0-4.254,2.303-4.254,5.144V274.6h44.068V237.439z"/>
	<path style="fill:#57B5E9;" d="M310.019,32.281h61.008v251.233c0,5.402-4.379,9.781-9.781,9.781h-51.227V32.281z"/>
	<path style="fill:#43A0D8;" d="M258.791,32.281h51.228v261.014h-51.228c-5.402,0-9.781-4.379-9.781-9.781V42.062
		C249.01,36.66,253.389,32.281,258.791,32.281z"/>
	<g>
		<path style="fill:#DFE1E5;" d="M353.273,336.826h-86.508c-5.278,0-9.557-4.278-9.557-9.557c0-5.279,4.279-9.557,9.557-9.557
			h86.508c5.278,0,9.557,4.278,9.557,9.557C362.83,332.547,358.551,336.826,353.273,336.826z"/>
	</g>
	<path style="fill:#F7F7F7;" d="M137.806,481.583c26.26,14.522,55.469,24.363,86.508,28.378V271.633h-86.508V481.583z"/>
	<path style="fill:#DFE1E5;" d="M181.875,271.633h-44.068v209.95c13.915,7.695,28.664,14.06,44.068,18.956V271.633z"/>
	<g>
		<path style="fill:#DFE1E5;" d="M224.314,336.826h-86.508c-5.278,0-9.557-4.278-9.557-9.557c0-5.279,4.279-9.557,9.557-9.557
			h86.508c5.278,0,9.557,4.278,9.557,9.557C233.871,332.547,229.592,336.826,224.314,336.826z"/>
	</g>
	<path style="fill:#D2D3D6;" d="M171.503,327.269c0-5.279,4.279-9.557,9.557-9.557h-43.254c-5.278,0-9.557,4.278-9.557,9.557
		c0,5.279,4.279,9.557,9.557,9.557h43.254C175.782,336.826,171.503,332.547,171.503,327.269z"/>
	<path style="fill:#D2D3D6;" d="M300.462,327.269c0-5.279,4.279-9.557,9.557-9.557h-43.254c-5.278,0-9.557,4.278-9.557,9.557
		c0,5.279,4.279,9.557,9.557,9.557h43.254C304.741,336.826,300.462,332.547,300.462,327.269z"/>
</g>
<g>
</g>
<g>
</g>
<g>
</g>
<g>
</g>
<g>
</g>
<g>
</g>
<g>
</g>
<g>
</g>
<g>
</g>
<g>
</g>
<g>
</g>
<g>
</g>
<g>
</g>
<g>
</g>
<g>
</g>
</svg>
