<?xml version="1.0" encoding="iso-8859-1"?>
<!-- Generator: Adobe Illustrator 19.0.0, SVG Export Plug-In . SVG Version: 6.00 Build 0)  -->
<svg version="1.1" id="Layer_1" xmlns="http://www.w3.org/2000/svg" xmlns:xlink="http://www.w3.org/1999/xlink" x="0px" y="0px"
	 viewBox="0 0 512 512" style="enable-background:new 0 0 512 512;" xml:space="preserve">
<g>
	<circle style="fill:#43A0D8;" cx="249.86" cy="268.28" r="243.72"/>
	
		<rect x="169.467" y="73.31" transform="matrix(0.866 0.5 -0.5 0.866 84.1718 -97.4996)" style="fill:#F7F7F7;" width="109.111" height="70.014"/>
	
		<rect x="174.338" y="55.133" transform="matrix(0.866 0.5 -0.5 0.866 70.8651 -84.1928)" style="fill:#DFE1E5;" width="36.402" height="70.014"/>
	<path style="fill:#FEC63B;" d="M499.912,148.645L371.968,74.776c-5.688-3.284-12.961-1.335-16.245,4.353L125.491,477.903
		C161.902,499.553,204.424,512,249.86,512c19.998,0,39.426-2.426,58.024-6.969L504.265,164.89
		C507.549,159.201,505.599,151.928,499.912,148.645z M409.823,177.459c-11.311,0-20.514-9.203-20.514-20.514
		c0-11.311,9.202-20.514,20.514-20.513c11.312,0,20.514,9.202,20.514,20.514C430.338,168.256,421.135,177.459,409.823,177.459z"/>
	<g>
		<path style="fill:#F3A225;" d="M391.01,85.77l-19.042-10.994c-5.688-3.284-12.961-1.335-16.245,4.353L125.491,477.903
			c9.69,5.761,19.816,10.864,30.311,15.26L391.01,85.77z"/>
	</g>
	<path style="fill:#F9DEA0;" d="M499.912,148.645l-21.199-12.239L262.04,511.693c15.719-0.778,31.044-3.048,45.843-6.662
		l148.61-257.399l47.771-82.743c0.205-0.355,0.39-0.717,0.555-1.084C507.29,158.308,505.244,151.723,499.912,148.645z"/>
	<g>
		<path style="fill:#DFE1E5;" d="M268.116,141.055L173.623,86.5c-4.087-2.36-5.488-7.586-3.128-11.674
			c2.36-4.088,7.587-5.488,11.674-3.128l94.493,54.556c4.087,2.36,5.488,7.586,3.128,11.674S272.204,143.415,268.116,141.055z"/>
	</g>
	<path style="fill:#D2D3D6;" d="M203.953,94.143c1.707-2.956,4.543-4.843,7.648-5.453l-29.431-16.992
		c-4.087-2.36-9.314-0.96-11.674,3.128c-2.36,4.088-0.959,9.314,3.128,11.674l29.431,16.992
		C202.03,100.499,202.246,97.098,203.953,94.143z"/>
	<path style="fill:#ED335F;" d="M282.335,7.318L282.335,7.318c-26.094-15.065-59.46-6.125-74.525,19.969l-14.842,25.708
		l94.493,54.556l14.842-25.708C317.368,55.749,308.428,22.383,282.335,7.318z"/>
	<path style="fill:#DB2659;" d="M239.314,45.537c11.74-20.333,34.265-30.546,56.177-27.604c-3.714-4.097-8.11-7.701-13.156-10.615
		l-0.001,0c-26.093-15.065-59.459-6.125-74.524,19.969l-14.843,25.708l31.531,18.204L239.314,45.537z"/>
	<path style="fill:#F3A225;" d="M160.546,109.15L20.687,351.393c5.081,14.005,11.415,27.407,18.855,40.082l152.501-264.14
		L160.546,109.15z"/>
	<path style="fill:#F9B430;" d="M192.044,127.335L39.543,391.475c6.795,11.576,14.514,22.542,23.063,32.794l160.936-278.749
		L192.044,127.335z"/>
	<path style="fill:#FEC63B;" d="M223.542,145.521L62.606,424.269c8.08,9.689,16.9,18.738,26.37,27.068l166.064-287.631
		L223.542,145.521z"/>
	<path style="fill:#F9B430;" d="M157.628,474.496c2.36-4.088,0.959-9.314-3.128-11.674l-15.226-8.791l-8.546,14.802l15.226,8.791
		C150.041,479.984,155.267,478.584,157.628,474.496z"/>
	<path style="fill:#F9B430;" d="M289.587,245.936c2.36-4.088,0.959-9.314-3.128-11.674l-15.226-8.791l-8.546,14.802l15.226,8.791
		C282,251.424,287.226,250.024,289.587,245.936z"/>
	<path style="fill:#F9B430;" d="M184.089,429.114l-22.823-13.177l-8.546,14.802l22.823,13.177c4.087,2.36,9.314,0.96,11.674-3.128
		C189.578,436.7,188.177,431.474,184.089,429.114z"/>
	<path style="fill:#F9B430;" d="M245.6,322.123c2.36-4.088,0.959-9.314-3.128-11.674l-15.226-8.791L218.7,316.46l15.226,8.791
		C238.014,327.611,243.24,326.211,245.6,322.123z"/>
	<path style="fill:#F9B430;" d="M201.614,398.309c2.36-4.088,0.959-9.314-3.128-11.674l-15.226-8.791l-8.546,14.802l15.226,8.791
		C194.027,403.797,199.254,402.397,201.614,398.309z"/>
	<path style="fill:#F9B430;" d="M330.444,158.077l-15.226-8.791l-8.546,14.802l15.226,8.791c4.087,2.36,9.314,0.96,11.674-3.128
		S334.532,160.436,330.444,158.077z"/>
	<path style="fill:#F9B430;" d="M228.076,352.928l-22.823-13.177l-8.546,14.802l22.823,13.177c4.087,2.36,9.314,0.96,11.674-3.128
		C233.564,360.514,232.163,355.288,228.076,352.928z"/>
	<path style="fill:#F9B430;" d="M316.048,200.555l-22.823-13.177l-8.546,14.802l22.823,13.177c4.087,2.36,9.314,0.96,11.674-3.128
		C321.536,208.141,320.136,202.915,316.048,200.555z"/>
	<path style="fill:#F9B430;" d="M272.062,276.741l-22.823-13.177l-8.546,14.802l22.823,13.177c4.087,2.36,9.314,0.96,11.674-3.128
		C277.55,284.327,276.149,279.101,272.062,276.741z"/>
	<g>
		<path style="fill:#F3A225;" d="M205.86,187.402l-42.104-24.309c-4.087-2.36-5.488-7.586-3.128-11.674
			c2.36-4.088,7.587-5.488,11.674-3.128l42.104,24.309c4.087,2.36,5.488,7.586,3.128,11.674
			C215.174,188.362,209.947,189.762,205.86,187.402z"/>
	</g>
</g>
<g>
</g>
<g>
</g>
<g>
</g>
<g>
</g>
<g>
</g>
<g>
</g>
<g>
</g>
<g>
</g>
<g>
</g>
<g>
</g>
<g>
</g>
<g>
</g>
<g>
</g>
<g>
</g>
<g>
</g>
</svg>
