<?xml version="1.0" encoding="utf-8"?>
<!-- Generator: Adobe Illustrator 24.0.3, SVG Export Plug-In . SVG Version: 6.00 Build 0)  -->
<svg version="1.1" id="Layer_1" xmlns="http://www.w3.org/2000/svg" xmlns:xlink="http://www.w3.org/1999/xlink" x="0px" y="0px"
	 viewBox="0 0 637.7 637.8" style="enable-background:new 0 0 637.7 637.8;" xml:space="preserve">
<style type="text/css">
	.st0{fill:none;stroke:#FFFFFF;stroke-miterlimit:10;}
	.st1{fill:#FFFFFF;stroke:#FFFFFF;stroke-miterlimit:10;}
	.st2{fill:none;stroke:#FFFFFF;stroke-miterlimit:10;stroke-dasharray:6.1319,6.1319;}
	.st3{fill:none;stroke:#FFFFFF;stroke-miterlimit:10;stroke-dasharray:6.1315,6.1315;}
	.st4{fill:none;stroke:#FFFFFF;stroke-miterlimit:10;stroke-dasharray:6.1323,6.1323;}
	.st5{fill:none;stroke:#FFFFFF;stroke-width:7;stroke-linecap:round;stroke-linejoin:round;stroke-miterlimit:10;}
	.st6{fill:none;stroke:#FFFFFF;stroke-miterlimit:10;stroke-dasharray:12.3301,12.3301;}
	.st7{fill:none;stroke:#FFFFFF;stroke-miterlimit:10;stroke-dasharray:10.1087,10.1087;}
	.st8{fill:none;stroke:#FFFFFF;stroke-miterlimit:10;stroke-dasharray:10.2008,10.2008;}
	.st9{fill:none;stroke:#FFFFFF;stroke-miterlimit:10;stroke-dasharray:9.6009,9.6009;}
	.st10{fill:none;stroke:#FFFFFF;stroke-miterlimit:10;stroke-dasharray:9.601,9.601;}
</style>
<line class="st0" x1="346.9" y1="493.1" x2="320.3" y2="468.2"/>
<line class="st0" x1="321.1" y1="494" x2="346.1" y2="467.4"/>
<line class="st0" x1="82.5" y1="574.1" x2="55.9" y2="549.1"/>
<line class="st0" x1="56.7" y1="574.9" x2="81.7" y2="548.3"/>
<line class="st0" x1="163.4" y1="397.2" x2="136.8" y2="372.3"/>
<line class="st0" x1="137.6" y1="398.1" x2="162.6" y2="371.5"/>
<line class="st0" x1="590.6" y1="65.3" x2="564" y2="40.3"/>
<line class="st0" x1="564.8" y1="66.1" x2="589.8" y2="39.5"/>
<line class="st0" x1="228" y1="82.1" x2="201.4" y2="57.1"/>
<line class="st0" x1="202.2" y1="82.9" x2="227.2" y2="56.3"/>
<polygon class="st1" points="532.5,132.4 522,114.3 511.6,132.5 501.1,150.6 522.1,150.6 543,150.6 "/>
<polygon class="st1" points="141.1,513.8 130.6,495.6 120.2,513.8 109.7,531.9 130.7,531.9 151.6,531.9 "/>
<g>
	<g>
		<g>
			<polyline class="st0" points="163.8,493.1 162.3,490.5 160.8,493.1 			"/>
			<polyline class="st2" points="157.7,498.4 156.2,501.1 153.2,506.4 			"/>
			<polyline class="st0" points="151.6,509 150.1,511.6 153.1,511.6 			"/>
			<polyline class="st3" points="159.3,511.6 162.3,511.6 168.5,511.6 			"/>
			<polyline class="st0" points="171.5,511.6 174.5,511.6 173,509 			"/>
			<polyline class="st4" points="169.9,503.7 168.4,501.1 165.3,495.7 			"/>
		</g>
	</g>
</g>
<polygon class="st0" points="309.8,60.8 307.5,56.8 305.1,60.8 302.8,64.9 307.5,64.9 312.2,64.9 "/>
<polygon class="st0" points="142.7,44.6 140.3,40.5 138,44.6 135.6,48.7 140.3,48.7 145,48.7 "/>
<polygon class="st1" points="131.5,314.8 129.2,310.8 126.8,314.8 124.5,318.9 129.2,318.9 133.9,318.9 "/>
<polygon class="st0" points="583.2,367.6 580.8,363.6 578.5,367.6 576.1,371.7 580.8,371.7 585.5,371.7 "/>
<polygon class="st0" points="407.3,512.6 404.9,508.5 402.6,512.6 400.2,516.7 404.9,516.7 409.6,516.7 "/>
<polygon class="st1" points="329.2,56.8 326.8,52.7 324.5,56.8 322.1,60.8 326.8,60.8 331.5,60.8 "/>
<polygon class="st1" points="341.8,87.2 339.5,83.1 337.1,87.2 334.8,91.3 339.5,91.3 344.2,91.3 "/>
<polygon class="st1" points="135,287.3 132.6,283.2 130.3,287.3 127.9,291.4 132.6,291.4 137.3,291.4 "/>
<polygon class="st1" points="583.2,340.5 580.8,336.4 578.5,340.5 576.1,344.6 580.8,344.6 585.5,344.6 "/>
<polygon class="st1" points="600.1,557.8 597.8,553.8 595.4,557.8 593.1,561.9 597.8,561.9 602.5,561.9 "/>
<polygon class="st1" points="401,445 398.6,440.9 396.3,445 393.9,449 398.6,449 403.3,449 "/>
<polygon class="st1" points="422.8,455.6 420.4,451.5 418,455.6 415.7,459.7 420.4,459.7 425.1,459.7 "/>
<polygon class="st1" points="558.8,358.2 556.4,354.1 554.1,358.2 551.7,362.3 556.4,362.3 561.1,362.3 "/>
<polygon class="st1" points="105.1,302.8 102.8,298.7 100.4,302.8 98.1,306.9 102.8,306.9 107.5,306.9 "/>
<polygon class="st1" points="252.6,499.7 250.2,495.6 247.9,499.7 245.5,503.7 250.2,503.7 254.9,503.7 "/>
<polygon class="st1" points="229.4,516.5 227.1,512.5 224.7,516.6 222.4,520.6 227.1,520.6 231.8,520.6 "/>
<polygon class="st1" points="453.8,274.7 451.4,270.6 449.1,274.7 446.7,278.8 451.4,278.8 456.1,278.8 "/>
<g>
	<g>
		<g>
			<polyline class="st0" points="476.3,72.7 474.8,70.1 473.3,72.7 			"/>
			<polyline class="st2" points="470.3,78 468.7,80.6 465.7,85.9 			"/>
			<polyline class="st0" points="464.1,88.6 462.6,91.2 465.6,91.2 			"/>
			<polyline class="st3" points="471.8,91.2 474.8,91.2 481,91.2 			"/>
			<polyline class="st0" points="484,91.2 487,91.2 485.5,88.6 			"/>
			<polyline class="st4" points="482.5,83.3 480.9,80.6 477.8,75.3 			"/>
		</g>
	</g>
</g>
<g>
	<g>
		<g>
			<polyline class="st0" points="570.1,572.7 568.6,570.1 567.1,572.7 			"/>
			<polyline class="st2" points="564,578 562.5,580.7 559.4,586 			"/>
			<polyline class="st0" points="557.9,588.7 556.4,591.3 559.4,591.3 			"/>
			<polyline class="st3" points="565.5,591.3 568.6,591.3 574.7,591.3 			"/>
			<polyline class="st0" points="577.8,591.3 580.8,591.3 579.3,588.7 			"/>
			<polyline class="st4" points="576.2,583.4 574.7,580.7 571.6,575.4 			"/>
		</g>
	</g>
</g>
<g>
	<g>
		<g>
			<polyline class="st0" points="100.5,467.9 99,465.3 97.5,467.9 			"/>
			<polyline class="st2" points="94.4,473.2 92.9,475.8 89.8,481.2 			"/>
			<polyline class="st0" points="88.3,483.8 86.8,486.4 89.8,486.4 			"/>
			<polyline class="st3" points="95.9,486.4 99,486.4 105.1,486.4 			"/>
			<polyline class="st0" points="108.2,486.4 111.2,486.4 109.7,483.8 			"/>
			<polyline class="st4" points="106.6,478.5 105.1,475.8 102,470.5 			"/>
		</g>
	</g>
</g>
<g>
	<polyline class="st5" points="502.2,362 496.1,368.8 490,375.7 496.1,382.5 502.2,389.3 	"/>
</g>
<g>
	<polyline class="st5" points="523,362 516.9,368.8 510.8,375.7 516.9,382.5 523,389.3 	"/>
</g>
<g>
	<polyline class="st5" points="70.3,296.2 64.2,303.1 58.1,310 64.2,316.8 70.4,323.6 	"/>
</g>
<g>
	<polyline class="st5" points="50.3,296.2 44.2,303.1 38.1,310 44.3,316.8 50.4,323.6 	"/>
</g>
<g>
	<polyline class="st5" points="415.7,92.5 409.6,99.4 403.5,106.3 409.6,113.1 415.7,119.9 	"/>
</g>
<g>
	<polyline class="st5" points="436.3,92.5 430.2,99.4 424.1,106.3 430.2,113.1 436.4,119.9 	"/>
</g>
<path class="st0" d="M344,189.2c0-5.4,4.3-9.7,9.7-9.7h93.1c5.4,0,9.7,4.3,9.7,9.7v6c0,5.4-4.3,9.7-9.7,9.7h-93.1
	c-5.4,0-9.7-4.3-9.7-9.7V189.2z"/>
<path class="st0" d="M447.9,204.9c-5.4,0-9.7-4.3-9.7-9.7v-6c0-5.4,4.3-9.7,9.7-9.7"/>
<path class="st0" d="M137.6,576.3c0-5.4,4.3-9.7,9.7-9.7h93.1c5.4,0,9.7,4.3,9.7,9.7v6c0,5.4-4.3,9.7-9.7,9.7h-93.1
	c-5.4,0-9.7-4.3-9.7-9.7V576.3z"/>
<path class="st0" d="M241.5,592c-5.4,0-9.7-4.3-9.7-9.7v-6c0-5.4,4.3-9.7,9.7-9.7"/>
<path class="st5" d="M566,465.3c0,11.3-9.1,20.4-20.4,20.4c-11.3,0-20.4-9.1-20.4-20.4c0-11.3,9.1-20.4,20.4-20.4
	C556.8,444.9,566,454,566,465.3z"/>
<path class="st5" d="M106.9,80.6c0,11.3-9.1,20.4-20.4,20.4c-11.3,0-20.4-9.1-20.4-20.4c0-11.3,9.1-20.4,20.4-20.4
	C97.8,60.2,106.9,69.3,106.9,80.6z"/>
<g>
	<g>
		<g>
			<polyline class="st0" points="64.4,224.4 64.4,229.4 69.4,229.4 			"/>
			<line class="st6" x1="81.7" y1="229.4" x2="100.2" y2="229.5"/>
			<polyline class="st0" points="106.4,229.5 111.4,229.5 111.4,224.5 			"/>
			<line class="st7" x1="111.4" y1="214.3" x2="111.4" y2="199.2"/>
			<polyline class="st0" points="111.4,194.1 111.4,189.1 106.4,189.1 			"/>
			<line class="st6" x1="94.1" y1="189.1" x2="75.6" y2="189.1"/>
			<polyline class="st0" points="69.4,189.1 64.4,189.1 64.4,194.1 			"/>
			<line class="st7" x1="64.4" y1="204.2" x2="64.4" y2="219.4"/>
		</g>
	</g>
</g>
<g>
	<g>
		<g>
			<polyline class="st0" points="522.1,173.9 522.1,178.9 527.1,178.9 			"/>
			<line class="st6" x1="539.4" y1="178.9" x2="557.9" y2="179"/>
			<polyline class="st0" points="564,179 569,179 569,174 			"/>
			<line class="st7" x1="569.1" y1="163.9" x2="569.1" y2="148.7"/>
			<polyline class="st0" points="569.1,143.6 569.1,138.6 564.1,138.6 			"/>
			<line class="st6" x1="551.7" y1="138.6" x2="533.2" y2="138.6"/>
			<polyline class="st0" points="527.1,138.6 522.1,138.6 522.1,143.6 			"/>
			<line class="st7" x1="522.1" y1="153.7" x2="522.1" y2="168.9"/>
		</g>
	</g>
</g>
<rect x="99" y="145.7" class="st0" width="63.3" height="63.3"/>
<polyline class="st0" points="99,145.7 118.3,126.3 181.6,126.3 181.6,189.6 162.3,209 "/>
<line class="st0" x1="181.6" y1="126.3" x2="162.3" y2="145.7"/>
<rect x="481.6" y="464.5" class="st0" width="63.3" height="63.3"/>
<polyline class="st0" points="544.9,527.8 525.6,547.1 462.3,547.1 462.3,483.8 481.6,464.5 "/>
<line class="st0" x1="462.3" y1="547.1" x2="481.6" y2="527.8"/>
<g>
	<path class="st5" d="M253.9,158.3c-6.9,0-5.7-12.3-14.5-12.3"/>
	<path class="st5" d="M283,158.3c-6.9,0-5.7-12.3-14.5-12.3"/>
	<path class="st5" d="M253.9,158.3c6.9,0,5.7-12.3,14.5-12.3"/>
	<path class="st5" d="M312,158.3c-6.9,0-5.7-12.3-14.5-12.3"/>
	<path class="st5" d="M283,158.3c6.9,0,5.7-12.3,14.5-12.3"/>
	<path class="st5" d="M312,158.3c6.9,0,5.7-12.3,14.5-12.3"/>
</g>
<g>
	<path class="st5" d="M283,141.5c-6.9,0-5.7-12.3-14.5-12.3"/>
	<path class="st5" d="M312,141.5c-6.9,0-5.7-12.3-14.5-12.3"/>
	<path class="st5" d="M283,141.5c6.9,0,5.7-12.3,14.5-12.3"/>
	<path class="st5" d="M341.1,141.5c-6.9,0-5.7-12.3-14.5-12.3"/>
	<path class="st5" d="M312,141.5c6.9,0,5.7-12.3,14.5-12.3"/>
	<path class="st5" d="M341.1,141.5c6.9,0,5.7-12.3,14.5-12.3"/>
</g>
<g>
	<path class="st5" d="M310.4,584.6c-6.9,0-5.7-12.3-14.5-12.3"/>
	<path class="st5" d="M339.5,584.6c-6.9,0-5.7-12.3-14.5-12.3"/>
	<path class="st5" d="M310.4,584.6c6.9,0,5.7-12.3,14.5-12.3"/>
	<path class="st5" d="M368.6,584.6c-6.9,0-5.7-12.3-14.5-12.3"/>
	<path class="st5" d="M339.5,584.6c6.9,0,5.7-12.3,14.5-12.3"/>
	<path class="st5" d="M368.6,584.6c6.9,0,5.7-12.3,14.5-12.3"/>
</g>
<g>
	<path class="st5" d="M339.5,567.9c-6.9,0-5.7-12.3-14.5-12.3"/>
	<path class="st5" d="M368.6,567.9c-6.9,0-5.7-12.3-14.5-12.3"/>
	<path class="st5" d="M339.5,567.9c6.9,0,5.7-12.3,14.5-12.3"/>
	<path class="st5" d="M397.6,567.9c-6.9,0-5.7-12.3-14.5-12.3"/>
	<path class="st5" d="M368.6,567.9c6.9,0,5.7-12.3,14.5-12.3"/>
	<path class="st5" d="M397.6,567.9c6.9,0,5.7-12.3,14.5-12.3"/>
</g>
<g>
	<path class="st0" d="M521,240.6c4.7,0,3.9,8.4,10,8.4"/>
	<path class="st0" d="M501.1,240.6c4.7,0,3.9,8.4,10,8.4"/>
	<path class="st0" d="M521,240.6c-4.7,0-3.9,8.4-10,8.4"/>
	<path class="st0" d="M481.1,240.6c4.7,0,3.9,8.4,10,8.4"/>
	<path class="st0" d="M501.1,240.6c-4.7,0-3.9,8.4-10,8.4"/>
	<path class="st0" d="M481.1,240.6c-4.7,0-3.9,8.4-10,8.4"/>
</g>
<g>
	<path class="st0" d="M89.2,413.6c4.7,0,3.9,8.4,10,8.4"/>
	<path class="st0" d="M69.2,413.6c4.7,0,3.9,8.4,10,8.4"/>
	<path class="st0" d="M89.2,413.6c-4.7,0-3.9,8.4-10,8.4"/>
	<path class="st0" d="M49.3,413.6c4.7,0,3.9,8.4,10,8.4"/>
	<path class="st0" d="M69.2,413.6c-4.7,0-3.9,8.4-10,8.4"/>
	<path class="st0" d="M49.3,413.6c-4.7,0-3.9,8.4-10,8.4"/>
</g>
<g>
	<g>
		<g>
			<polyline class="st0" points="234.6,436.7 235.9,441.5 240.8,440.1 			"/>
			<line class="st8" x1="250.6" y1="437.4" x2="442.3" y2="384.3"/>
			<polyline class="st0" points="447.2,383 452,381.6 450.7,376.8 			"/>
			<line class="st9" x1="448.1" y1="367.6" x2="403.3" y2="205.6"/>
			<polyline class="st0" points="402,201 400.7,196.2 395.8,197.5 			"/>
			<line class="st8" x1="386" y1="200.3" x2="194.3" y2="253.3"/>
			<polyline class="st0" points="189.4,254.7 184.6,256 185.9,260.9 			"/>
			<line class="st10" x1="188.5" y1="270.1" x2="233.3" y2="432"/>
		</g>
	</g>
</g>
</svg>
